<?xml version="1.0" encoding="iso-8859-1"?>
<!-- Generator: Adobe Illustrator 16.0.0, SVG Export Plug-In . SVG Version: 6.00 Build 0)  -->
<!DOCTYPE svg PUBLIC "-//W3C//DTD SVG 1.1//EN" "http://www.w3.org/Graphics/SVG/1.1/DTD/svg11.dtd">
<svg version="1.1" id="Capa_1" xmlns="http://www.w3.org/2000/svg" xmlns:xlink="http://www.w3.org/1999/xlink" x="0px" y="0px"
	 viewBox="0 0 174.101 174.101" style="enable-background:new 0 0 174.101 174.101;"
	 xml:space="preserve">
<g>
	<g>
		<polygon points="74.723,167.025 74.748,167.001 74.699,167.001 		"/>
		<path d="M93.152,91.526c13.518-9.098,22.834-27.03,22.834-43.178c0-22.789-18.48-41.272-41.263-41.272
			c-22.789,0-41.272,18.478-41.272,41.272c0,16.148,9.31,34.081,22.834,43.178C23.955,99.729,0,127.793,0,148.588
			c0,12.288,37.341,18.413,74.692,18.413l-20.913-20.91l17.622-42.6h-0.183l-6.847-7.849c3.318,1.188,6.768,1.905,10.345,1.905
			c3.574,0,7.015-0.718,10.321-1.899l-6.841,7.837h-0.174l17.619,42.6l-20.913,20.904c7.072,0,14.142-0.189,20.956-0.633v-47.691
			h19.802v-12.227h8.001C114.872,99.808,104.563,94.419,93.152,91.526z"/>
		<rect x="101.945" y="124.913" width="12.763" height="35.877"/>
		<rect x="121.734" y="112.687" width="12.764" height="48.104"/>
		<rect x="141.537" y="100.459" width="12.763" height="60.331"/>
		<rect x="161.338" y="88.231" width="12.763" height="72.559"/>
	</g>
</g>
<g>
</g>
<g>
</g>
<g>
</g>
<g>
</g>
<g>
</g>
<g>
</g>
<g>
</g>
<g>
</g>
<g>
</g>
<g>
</g>
<g>
</g>
<g>
</g>
<g>
</g>
<g>
</g>
<g>
</g>
</svg>
