<?xml version="1.0" encoding="iso-8859-1"?>
<!-- Generator: Adobe Illustrator 16.0.0, SVG Export Plug-In . SVG Version: 6.00 Build 0)  -->
<!DOCTYPE svg PUBLIC "-//W3C//DTD SVG 1.1//EN" "http://www.w3.org/Graphics/SVG/1.1/DTD/svg11.dtd">
<svg version="1.1" id="Capa_1" xmlns="http://www.w3.org/2000/svg" xmlns:xlink="http://www.w3.org/1999/xlink" x="0px" y="0px"
	viewBox="0 0 590.833 590.833" style="enable-background:new 0 0 590.833 590.833;"
	 xml:space="preserve">
<g>
	<polygon points="553.333,27.722 553.891,32.015 547.477,33.352 546.583,42.501 554.333,42.501 564.58,41.502 569.843,35.205 
		564.255,33.015 561.165,29.471 556.505,21.988 554.333,11.386 545.607,13.146 543.178,16.894 543.178,21.094 547.361,23.963 	"/>
	<polygon points="474.558,66.935 475,61.202 469.912,59 462.743,60.655 457.456,69.137 457.456,74.656 463.637,74.656 	"/>
	<path d="M327.6,91.276l-1.558,4.061h-7.627v3.916h1.807c0,0,0.122,0.831,0.272,1.923l4.653-0.377l2.905-1.795l0.761-3.666
		l3.781-0.319l1.465-3.084l-3.439-0.715L327.6,91.276z"/>
	<polygon points="308.017,98.404 307.708,102.25 313.239,101.797 313.797,97.928 310.48,95.337 	"/>
	<path d="M176.76,76.12v8.284c2.882-6.762,6.094-13.35,9.51-19.81L176.76,76.12z"/>
	<g>
		<rect x="101.843" y="443.113" width="34.693" height="147.72"/>
		<rect x="157.357" y="479.619" width="34.693" height="111.214"/>
		<rect x="214.87" y="443.113" width="34.693" height="147.72"/>
		<rect x="270.383" y="479.619" width="34.693" height="111.214"/>
		<rect x="327.896" y="443.113" width="34.693" height="147.72"/>
		<rect x="383.41" y="479.619" width="34.693" height="111.214"/>
		<rect x="440.922" y="449.782" width="34.693" height="141.051"/>
		<path d="M505.325,318.7l-70.734,27.072l14.872,11.618l-44.406,49.937l-59.11-40.886l-51.314,37.622l-68.115-47.66l-50.1,43.279
			c-50.123-30.162-50.495-30.162-56.24-30.162v19.38l-7.436,14.651c3.631,1.859,31.504,18.438,56.345,33.381l11.09,6.668
			l48.636-42.013l66.296,46.405l51.419-37.715l64.199,44.372l66.9-75.254l25.305,19.774L505.325,318.7z"/>
		<path d="M584.611,286.284c-0.093-8.487-0.512-16.876-1.324-25.143c-2.673-27.56-9.272-53.98-19.148-78.751
			c-0.743-1.83-1.417-3.724-2.184-5.531c-13.176-31.091-31.649-59.395-54.26-83.817c-1.464-1.609-2.975-3.166-4.484-4.717
			c-4.299-4.433-8.68-8.778-13.223-12.92C438.552,28.582,370.269,0,295.416,0C219.935,0,151.135,29.093,99.572,76.608
			c-12.02,11.09-23.058,23.167-33.067,36.111C28.721,161.616,6.164,222.84,6.164,289.259c0,75.801,29.349,144.838,77.218,196.472
			V448.76c-33.532-44.418-53.423-99.688-53.423-159.501c0-36.854,7.581-71.96,21.192-103.883v-8.267l9.504-11.532
			c3.271-6.222,6.826-12.287,10.602-18.189l0.413,4.805l-11.015,13.384c-3.416,6.46-6.628,13.042-9.504,19.798v15.11l11.038,5.315
			v20.989l10.579,18.061l8.598,1.319l1.121-6.187l-10.161-15.656l-1.975-15.215h5.949l2.533,15.656l14.657,21.402l-3.782,6.901
			l9.318,14.268l23.161,5.734v-3.735l9.243,1.295l-0.854,6.628l7.267,1.342l11.247,3.073l15.895,18.096l20.286,1.534l1.975,16.545
			l-13.896,9.713l-0.656,14.768l-1.999,9.051l14.146,17.719l47.352-42.025l57.809,45.104l39.788-28.209l-3.787-6.24l-23.4-0.244
			l-18.526-7.075l-0.877-13.21l-6.187-10.829l-16.754-0.244l-9.708-15.186l-8.604-4.218l-0.436,4.659l-15.662,0.93l-5.733-8
			l-16.336-3.317l-13.455,15.582l-21.164-3.614l-1.539-23.865l-15.453-2.655l6.187-11.683l-1.76-6.733l-20.31,13.577l-12.78-1.563
			l-4.555-9.969l2.782-10.289l7.047-12.995l16.214-8.197l31.301-0.023l-0.069,9.55l11.247,5.252l-0.906-16.313l8.116-8.185
			l16.382-10.73l1.116-7.581l16.312-16.993l17.358-9.597l-1.534-1.272l11.752-11.067l4.322,1.139l1.975,2.492l4.462-4.949
			l1.092-0.488l-4.903-0.68l-4.949-1.656v-4.804l2.632-2.144h5.803l2.655,1.167l2.295,4.63l2.812-0.418v-0.418l0.808,0.273
			l8.139-1.249l1.139-3.974l4.653,1.167v4.293l-4.316,2.975h0.023l0.627,4.711l14.755,4.56c0,0,0,0.07,0.023,0.163l3.393-0.273
			l0.238-6.39l-11.688-5.315l-0.674-3.067l9.708-3.3l0.418-9.289l-10.138-6.164l-0.656-15.656l-13.884,6.791h-5.095l1.325-11.921
			l-18.921-4.461l-7.825,5.902v18.061l-14.064,4.438l-5.653,11.752l-6.111,0.999V125.47l-13.222-1.807l-6.623-4.316l-2.655-9.736
			l23.649-13.85l11.602-3.532l1.167,7.785l6.437-0.349l0.511-3.904l6.733-0.97l0.122-1.371l-2.905-1.191l-0.657-4.136l8.296-0.703
			l4.996-5.211l0.273-0.395l0.069,0.023l1.534-1.557l17.434-2.213l7.686,6.553l-20.193,10.759l25.701,6.065l3.34-8.598h11.247
			l3.974-7.512l-7.947-1.975v-9.48l-24.939-11.038l-17.19,1.975l-9.707,5.089l0.65,12.339l-10.137-1.534l-1.581-6.832l9.731-8.831
			l-17.655-0.877l-5.066,1.534l-2.213,5.949l6.622,1.121l-1.318,6.623l-11.241,0.657l-1.76,4.415L198.94,84.88
			c0,0-0.442-9.249-1.122-9.249c-0.65,0,12.781-0.238,12.781-0.238l9.731-9.481l-5.315-2.655l-7.047,6.832l-11.706-0.657
			l-7.041-9.707h-15.017l-15.656,11.683h14.36l1.295,4.211l-3.712,3.526l15.871,0.436l2.44,5.734l-17.893-0.65l-0.86-4.415
			l-11.241-2.44l-5.972-3.294l-13.385,0.116c43.82-31.922,97.713-50.838,155.963-50.838c67.138,0,128.462,25.091,175.25,66.32
			l-3.172,5.646l-12.212,4.787l-5.17,5.6l1.197,6.535l6.285,0.877l3.834,9.533l10.875-4.392l1.812,12.729h-3.299l-8.947-1.319
			l-9.922,1.656l-9.598,13.57l-13.732,2.167l-1.976,11.735l5.786,1.365l-1.649,7.558l-13.641-2.725l-12.524,2.725l-2.627,6.971
			l2.162,14.599l7.343,3.439l12.292-0.076l8.308-0.761l2.567-6.599l12.99-16.899l8.527,1.737l8.436-7.599l1.557,5.949l20.729,13.989
			l-2.51,3.393l-9.365-0.511l3.603,5.112l5.763,1.249l6.738-2.806l-0.15-8.116l2.997-1.487l-2.394-2.556l-13.814-7.709l-3.66-10.242
			h11.503l3.66,3.648l9.922,8.534l0.419,10.312l10.235,10.922l3.8-14.965l7.122-3.881l1.313,12.246l6.959,7.604l13.814-0.244
			c2.707,6.902,5.101,13.896,7.192,21.065l-1.487,1.342h-21.135l-12.896-9.603l-13.582,1.324v8.267h-4.311l-4.636-3.294
			l-23.505-5.949v-15.255l-29.79,2.318l-9.237,4.973h-11.828l-5.797-0.581l-14.361,7.971v15.017l-29.337,21.163l2.417,9.045h5.972
			l-1.557,8.598l-4.218,1.563l-0.209,22.5l25.352,28.883h11.062l0.662-1.73h19.868l5.704-5.299h11.271l6.158,6.182l8.481,0.883
			l71.071-20.914l-8.098,116.002l-20.601,16.684l0.023,67.156c20.507-20.891,37.993-44.732,51.471-71.037
			c10.235-20.007,18.241-41.338,23.598-63.705c1.371-5.646,2.567-11.362,3.59-17.137c2.894-16.43,4.508-33.299,4.508-50.564
			C584.68,288.259,584.611,287.284,584.611,286.284z M206.115,174.635l-3.811,3.782h-8.436l1.325-5.78l3.974-0.325l0.831-1.999
			l6.117-0.831V174.635z M208.113,164.201l-3.997,2.556l-4.95,0.929c0,0,0-7.947,0-8.784h8.946V164.201z M215.619,158.084
			l4.067,2.509l-3.248,2.702l-3.212-2.702L215.619,158.084z M210.251,164.689h0.68l10.091,2.998v5.136h-8.436l-2.324-3.34v-4.793
			H210.251z M203.628,150.456l5.461,4.973l-5.461,1.319V150.456z M180.461,151.304l7.627-3.166h10.434v3.166h2.295v5.461h-15.871
			l-5.972-1.679L180.461,151.304z M178.974,165.52l6.14-6.628h8.755l-11.241,15.732l-4.653-2.516L178.974,165.52z M170.887,128.113
			l6.268,1.511l-2.167,8.435l-6.78,2.167l-4.27-8.784L170.887,128.113z M154.987,105.806l-13.083,0.808l-2.486-2.975l9.266-2.649
			c0,0,5.803-0.976,6.291-0.976C155.463,100.014,154.987,105.806,154.987,105.806z M145.233,87.605l0.488-1.999h9.504v4.136
			l-2.725,3.654h-13.083v-5.292v-0.488h5.815V87.605z M496.309,129.943l-18.195-0.163l-1.139-3.811l11.387-5.78l0.046-12.92
			c4.555,4.828,8.947,9.777,13.106,14.918L496.309,129.943z M535.324,181.687l-5.146,0.703v-11.729l1.685-1.882
			c2.185,4.27,4.241,8.627,6.192,13.019L535.324,181.687z M552.892,229.219l0.836-0.976c0.349,1.51,0.721,2.998,1.046,4.531
			L552.892,229.219z"/>
	</g>
</g>
<g>
</g>
<g>
</g>
<g>
</g>
<g>
</g>
<g>
</g>
<g>
</g>
<g>
</g>
<g>
</g>
<g>
</g>
<g>
</g>
<g>
</g>
<g>
</g>
<g>
</g>
<g>
</g>
<g>
</g>
</svg>
