<?xml version="1.0" encoding="utf-8"?>
<!-- Generator: Adobe Illustrator 20.1.0, SVG Export Plug-In . SVG Version: 6.00 Build 0)  -->
<svg version="1.1" id="Layer_1" xmlns="http://www.w3.org/2000/svg" xmlns:xlink="http://www.w3.org/1999/xlink" x="0px" y="0px"
	 viewBox="0 0 115.4 18.7" style="enable-background:new 0 0 115.4 18.7;" xml:space="preserve">
<style type="text/css">
	.st0{fill:#FEFEFE;}
	.st1{fill:#4D4D4F;}
	.st2{fill:#4E4E50;}
	.st3{fill:#535355;}
	.st4{fill:#FCFCFC;}
	.st5{fill:#717173;}
</style>
<g>
	<g>
		<g>
			<path class="st0" d="M16.3,0.2c32.8,0,65.7,0,98.5,0c0.9,0,1.1,0.2,1.1,1.1c0,5.7,0,11.4,0,17.2c0,0.6-0.1,0.7-0.7,0.7
				c-38.1,0-76.2,0-114.4,0c-0.2,0-0.6,0.3-0.6-0.2c0.5-0.5,1.2-0.4,1.8-0.4c4.1,0,8.2,0,12.2,0c1.6,0,1.6-0.1,1.6-1.6
				c0-4.9,0-9.8,0-14.8C15.9,1.5,15.8,0.8,16.3,0.2z"/>
			<path class="st1" d="M16.3,0.2c0,5.5,0,11.1-0.1,16.6c0,2.1,0,2.1-2.1,2.1c-4.6,0-9.3,0-13.9,0c0-6,0-12,0-17.9
				c0-0.7,0.1-0.8,0.8-0.8C6.1,0.3,11.2,0.2,16.3,0.2z"/>
			<path class="st1" d="M113.8,14.7c0-3.6,0-7,0-10.4c0-0.6-0.1-1,0.8-1c0.8,0,0.7,0.5,0.7,1c0,3.8,0,7.7,0,11.5
				c0,0.4,0.3,1-0.3,1.1c-0.6,0.1-1.3,0.3-1.8-0.5c-1.2-1.9-2.4-3.7-3.6-5.5c-1.1-1.7-2.2-3.4-3.5-5.3c0,1.9,0,3.5,0,5.1
				c0,1.8,0,3.6,0,5.4c0,0.5,0.1,0.9-0.7,0.9c-0.8,0-0.7-0.4-0.7-0.9c0-3.8,0-7.7,0-11.5c0-0.4-0.3-1.1,0.4-1.2
				c0.6-0.1,1.3-0.1,1.8,0.6c1.5,2.4,3.1,4.8,4.6,7.1C112.1,12.3,112.9,13.4,113.8,14.7z"/>
			<path class="st2" d="M78.3,10.1c0-1.9,0-3.8,0-5.8c0-0.5-0.1-1,0.7-1c0.9,0,0.8,0.5,0.8,1.1c0,1.3,0,2.6,0,4
				c0,0.6,0.1,0.8,0.8,0.8c1.9,0,3.8,0,5.6,0c0.7,0,0.9-0.3,0.8-0.9c0-1.3,0-2.6,0-4c0-0.6,0-1,0.8-1c0.7,0,0.7,0.4,0.7,0.9
				c0,4,0,7.9,0,11.9c0,0.5,0,0.9-0.7,0.9c-0.8,0-0.8-0.4-0.8-1c0-1.5,0-3,0-4.6c0-0.7-0.1-1-0.9-0.9c-1.8,0.1-3.6,0.1-5.4,0
				c-0.9,0-1,0.3-1,1c0,1.5,0,3,0,4.6c0,0.5,0,0.9-0.7,0.9c-0.7,0-0.9-0.3-0.8-0.9C78.3,14.1,78.3,12.1,78.3,10.1z"/>
			<path class="st2" d="M28.1,10.2c0-2,0-3.9,0-5.9c0-0.7,0.1-1,0.9-1c2,0.1,3.9,0,5.9,0c0.5,0,0.8,0,0.9,0.7c0,0.7-0.4,0.8-0.9,0.7
				c-1.4,0-2.9,0-4.3,0c-0.7,0-0.9,0.2-0.9,0.9c0.1,0.9,0,1.8,0,2.8c0,0.7,0.2,0.8,0.8,0.8c1.4,0,2.7,0,4.1,0c0.6,0,0.8,0.2,0.8,0.8
				c0,0.6-0.3,0.6-0.8,0.6c-1.4,0-2.7,0-4.1,0c-0.6,0-0.9,0.2-0.8,0.8c0,1.2,0,2.3,0,3.5c0,0.6,0.2,0.8,0.8,0.8c1.5,0,3,0,4.4,0
				c0.5,0,0.8,0.1,0.8,0.7c0,0.6-0.3,0.7-0.8,0.7c-2,0-4,0-6,0c-0.7,0-0.8-0.3-0.8-0.9C28.1,14.1,28.1,12.2,28.1,10.2z"/>
			<path class="st2" d="M53.7,16.9c1.7-4.3,3.4-8.6,5.1-12.9c0.2-0.4,0.3-0.7,0.8-0.7c0.4,0,0.7,0,0.9,0.5c1.7,4.3,3.4,8.7,5.1,13
				c-1.1,0.4-1.6,0-2-1c-1.2-3.2-1.2-3.2-4.6-3.2c-2.2,0-2.2,0-2.9,2c-0.2,0.4-0.4,0.8-0.5,1.2C55.4,16.8,54.9,17.2,53.7,16.9z"/>
			<path class="st2" d="M96.5,12.6c-2.7,0-2.7,0-3.7,2.5c-0.2,0.4-0.4,0.9-0.5,1.3c-0.2,0.7-0.8,0.6-1.3,0.5
				c-0.7-0.2-0.2-0.7-0.1-0.9c1.5-3.9,3.1-7.9,4.6-11.8c0.2-0.5,0.4-0.9,1.1-0.9c0.7,0,0.8,0.4,0.9,0.9c1.5,3.9,3.1,7.9,4.6,11.8
				c0.1,0.3,0.7,0.8,0,1c-0.5,0.1-1.1,0.3-1.4-0.5c-0.3-0.9-0.7-1.7-1-2.6c-0.3-1-0.8-1.4-1.8-1.2C97.5,12.7,97,12.6,96.5,12.6z"/>
			<path class="st1" d="M42.6,14.8c1.3-3.6,2.5-7.1,3.7-10.5c0.1-0.4,0.2-0.9,0.9-1c0.8,0,1.2,0,0.8,1c-1.5,3.9-2.9,7.8-4.3,11.7
				c-0.2,0.5-0.3,1-1.1,1c-0.8,0-0.9-0.4-1.1-1c-1.4-3.8-2.8-7.7-4.1-11.5c-0.1-0.3-0.8-0.9,0-1.1c0.6-0.2,1.2-0.2,1.5,0.7
				c1.1,3.4,2.5,6.7,3.5,10.2C42.4,14.5,42.5,14.6,42.6,14.8z"/>
			<path class="st1" d="M70.3,10.9c0-1.8,0-3.5,0-5.3c0-0.7-0.2-0.9-0.9-0.9c-0.9,0-1.8,0-2.6,0c-0.5,0-0.9,0-0.8-0.7
				c0-0.6,0.3-0.7,0.8-0.7c2.9,0,5.8,0,8.6,0c0.5,0,0.8,0.1,0.8,0.7c0,0.6-0.3,0.7-0.8,0.7c-0.8,0-1.5,0.1-2.3,0
				c-1.1-0.1-1.3,0.3-1.3,1.3c0.1,3.3,0,6.6,0,10c0,0.6,0.1,1-0.8,1c-0.8,0-0.8-0.4-0.8-1C70.3,14.3,70.3,12.6,70.3,10.9z"/>
			<path class="st1" d="M19.7,9.6c0,1.7,0,3.4,0,5.2c0,0.7,0.2,0.9,0.9,0.9c1.4,0,2.9,0,4.3,0c0.5,0,0.8,0,0.8,0.7
				c0,0.7-0.3,0.8-0.9,0.8c-2,0-3.9,0-5.9,0c-0.6,0-0.8-0.2-0.8-0.8c0-4,0-8,0-12c0-0.5,0.1-0.8,0.7-0.8c0.6,0,0.8,0.2,0.8,0.8
				C19.7,6,19.7,7.8,19.7,9.6z"/>
			<path class="st3" d="M50.2,10.1c0-2,0-3.9,0-5.9c0-0.6,0.1-1,0.8-0.9c0.7,0,0.8,0.3,0.8,0.9c0,4,0,7.9,0,11.9
				c0,0.6-0.1,0.9-0.8,0.9c-0.8,0-0.7-0.5-0.7-1C50.2,14,50.2,12.1,50.2,10.1z"/>
			<path class="st0" d="M10.3,8.4c0.2,0.6,0.5,1.3,0.6,1.9c0.2,0.8-0.1,0.8-0.7,0.7c-0.4-0.1-0.9-0.2-1.3-0.3
				c-0.7-0.1-1.3-0.2-1.2-1.3c0.1-0.8-0.5-1.3-1.2-1.6c-1-0.4-1.9-0.7-2.9-1.2C2,6,1.3,4.6,1.2,3c-0.1-0.6,0-0.9,0.8-0.7
				C4,2.9,6.1,3.4,7.8,5c0.6-1.2,1.7-1.8,2.9-2.2c1-0.3,2-0.7,2.9-1.1c0.8-0.4,1-0.2,1,0.6c0,2.8-1.7,5-4.3,5.6
				C10,8.1,10.3,8.3,10.3,8.4z"/>
			<path class="st4" d="M15.7,15.3c-4.8-0.7-9.5-0.5-14.2,0.1C3.4,13,13.8,12.8,15.7,15.3z"/>
			<path class="st4" d="M14.5,13.4c-4.4-0.4-8.8-1.3-13.4,0.1c1.1-1.4,2.3-2,3.7-2.2C8.3,10.7,11.4,12.3,14.5,13.4z"/>
			<path class="st5" d="M10.3,8.4c-0.2-0.3-0.4-0.6-0.7-0.9c0.5-0.2,0.5,0.2,0.7,0.4C10.3,8.1,10.3,8.3,10.3,8.4z"/>
			<path class="st4" d="M59.7,5.2c0.7,2,1.4,3.8,2.1,5.6c0.2,0.4-0.1,0.5-0.4,0.5c-1.1,0-2.2,0-3.3,0c-0.6,0-0.5-0.3-0.3-0.7
				C58.4,8.8,59,7.1,59.7,5.2z"/>
			<path class="st4" d="M96.6,5.2c0.7,2,1.4,3.8,2.1,5.6c0.1,0.4,0,0.5-0.4,0.5c-1.3,0-2.5,0-3.9,0C95.1,9.2,95.8,7.3,96.6,5.2z"/>
		</g>
	</g>
</g>
</svg>
